<mxfile host="65bd71144e">
    <diagram id="tfHrSPSixyOSULKN7aZw" name="Page-1">
        <mxGraphModel dx="1428" dy="463" grid="1" gridSize="10" guides="1" tooltips="1" connect="1" arrows="1" fold="1" page="1" pageScale="1" pageWidth="850" pageHeight="1100" math="0" shadow="0">
            <root>
                <mxCell id="0"/>
                <mxCell id="1" parent="0"/>
                <mxCell id="3" value="" style="rounded=0;whiteSpace=wrap;html=1;" parent="1" vertex="1">
                    <mxGeometry x="205" y="120" width="595" height="860" as="geometry"/>
                </mxCell>
                <mxCell id="4" value="" style="endArrow=none;html=1;exitX=-0.005;exitY=0.057;exitDx=0;exitDy=0;exitPerimeter=0;" parent="1" source="3" edge="1">
                    <mxGeometry width="50" height="50" relative="1" as="geometry">
                        <mxPoint x="200" y="230" as="sourcePoint"/>
                        <mxPoint x="800" y="170" as="targetPoint"/>
                    </mxGeometry>
                </mxCell>
                <mxCell id="5" value="&lt;font style=&quot;font-size: 24px;&quot;&gt;Individuals&lt;/font&gt;" style="text;html=1;strokeColor=none;fillColor=none;align=center;verticalAlign=middle;whiteSpace=wrap;rounded=0;" parent="1" vertex="1">
                    <mxGeometry x="426.25" y="120" width="152.5" height="50" as="geometry"/>
                </mxCell>
                <mxCell id="6" value="- name:String" style="text;html=1;strokeColor=none;fillColor=none;align=center;verticalAlign=middle;whiteSpace=wrap;rounded=0;fontSize=24;" parent="1" vertex="1">
                    <mxGeometry x="205" y="190" width="170" height="30" as="geometry"/>
                </mxCell>
                <mxCell id="7" value="- age:int" style="text;html=1;strokeColor=none;fillColor=none;align=center;verticalAlign=middle;whiteSpace=wrap;rounded=0;fontSize=24;" parent="1" vertex="1">
                    <mxGeometry x="210" y="210" width="106.25" height="40" as="geometry"/>
                </mxCell>
                <mxCell id="8" value="- height:int" style="text;html=1;strokeColor=none;fillColor=none;align=center;verticalAlign=middle;whiteSpace=wrap;rounded=0;fontSize=24;" parent="1" vertex="1">
                    <mxGeometry x="210" y="230" width="130" height="50" as="geometry"/>
                </mxCell>
                <mxCell id="9" value="- weight:int" style="text;html=1;strokeColor=none;fillColor=none;align=center;verticalAlign=middle;whiteSpace=wrap;rounded=0;fontSize=24;" parent="1" vertex="1">
                    <mxGeometry x="210" y="260" width="130" height="50" as="geometry"/>
                </mxCell>
                <mxCell id="10" value="- hair:String" style="text;html=1;strokeColor=none;fillColor=none;align=center;verticalAlign=middle;whiteSpace=wrap;rounded=0;fontSize=24;" parent="1" vertex="1">
                    <mxGeometry x="205" y="290" width="145" height="50" as="geometry"/>
                </mxCell>
                <mxCell id="11" value="- eyes:String" style="text;html=1;strokeColor=none;fillColor=none;align=center;verticalAlign=middle;whiteSpace=wrap;rounded=0;fontSize=24;" parent="1" vertex="1">
                    <mxGeometry x="215" y="320" width="140" height="40" as="geometry"/>
                </mxCell>
                <mxCell id="13" value="- primaryLang:String" style="text;html=1;strokeColor=none;fillColor=none;align=center;verticalAlign=middle;whiteSpace=wrap;rounded=0;fontSize=24;" parent="1" vertex="1">
                    <mxGeometry x="212.5" y="360" width="220" height="20" as="geometry"/>
                </mxCell>
                <mxCell id="14" value="- secondaryLang:String" style="text;html=1;strokeColor=none;fillColor=none;align=center;verticalAlign=middle;whiteSpace=wrap;rounded=0;fontSize=24;" parent="1" vertex="1">
                    <mxGeometry x="210" y="390" width="257.5" height="20" as="geometry"/>
                </mxCell>
                <mxCell id="15" value="- assignment:String" style="text;html=1;strokeColor=none;fillColor=none;align=center;verticalAlign=middle;whiteSpace=wrap;rounded=0;fontSize=24;" parent="1" vertex="1">
                    <mxGeometry x="215" y="420" width="210" height="20" as="geometry"/>
                </mxCell>
                <mxCell id="16" value="- relation:Relative" style="text;html=1;strokeColor=none;fillColor=none;align=center;verticalAlign=middle;whiteSpace=wrap;rounded=0;fontSize=24;" vertex="1" parent="1">
                    <mxGeometry x="180" y="450" width="257.5" height="20" as="geometry"/>
                </mxCell>
                <mxCell id="17" value="- aidAdministered:Aid" style="text;html=1;strokeColor=none;fillColor=none;align=center;verticalAlign=middle;whiteSpace=wrap;rounded=0;fontSize=24;" vertex="1" parent="1">
                    <mxGeometry x="210" y="480" width="240" height="20" as="geometry"/>
                </mxCell>
                <mxCell id="18" value="- shelter:Centre" style="text;html=1;strokeColor=none;fillColor=none;align=center;verticalAlign=middle;whiteSpace=wrap;rounded=0;fontSize=24;" vertex="1" parent="1">
                    <mxGeometry x="180" y="510" width="240" height="20" as="geometry"/>
                </mxCell>
                <mxCell id="19" value="" style="endArrow=none;html=1;exitX=0;exitY=0.5;exitDx=0;exitDy=0;entryX=1;entryY=0.5;entryDx=0;entryDy=0;" edge="1" parent="1" source="3" target="3">
                    <mxGeometry width="50" height="50" relative="1" as="geometry">
                        <mxPoint x="205" y="530.0000000000001" as="sourcePoint"/>
                        <mxPoint x="830" y="548" as="targetPoint"/>
                    </mxGeometry>
                </mxCell>
                <mxCell id="23" value="+ Individual()" style="text;html=1;strokeColor=none;fillColor=none;align=center;verticalAlign=middle;whiteSpace=wrap;rounded=0;fontSize=24;" vertex="1" parent="1">
                    <mxGeometry x="196.25" y="560" width="177.5" height="20" as="geometry"/>
                </mxCell>
                <mxCell id="25" value="&lt;font style=&quot;font-size: 24px;&quot;&gt;+ Individual(name:String, age:int, height:int, weight:int, hair:String, eyes:String, primaryLang:String)&lt;/font&gt;" style="text;html=1;strokeColor=none;fillColor=none;align=center;verticalAlign=middle;whiteSpace=wrap;rounded=0;fontSize=24;" vertex="1" parent="1">
                    <mxGeometry x="180" y="580" width="643.75" height="70" as="geometry"/>
                </mxCell>
                <mxCell id="27" value="+ setSecLang(secondaryLang:String):void" style="text;html=1;strokeColor=none;fillColor=none;align=center;verticalAlign=middle;whiteSpace=wrap;rounded=0;fontSize=24;" vertex="1" parent="1">
                    <mxGeometry x="197.5" y="650" width="482.5" height="20" as="geometry"/>
                </mxCell>
                <mxCell id="28" value="+ setAssignment(assignment:String):void" style="text;html=1;strokeColor=none;fillColor=none;align=center;verticalAlign=middle;whiteSpace=wrap;rounded=0;fontSize=24;" vertex="1" parent="1">
                    <mxGeometry x="215" y="670" width="440" height="30" as="geometry"/>
                </mxCell>
                <mxCell id="30" value="+ setRelative(nameR:String, relation:String):void" style="text;html=1;strokeColor=none;fillColor=none;align=center;verticalAlign=middle;whiteSpace=wrap;rounded=0;fontSize=24;" vertex="1" parent="1">
                    <mxGeometry x="197.5" y="700" width="552.5" height="30" as="geometry"/>
                </mxCell>
                <mxCell id="31" value="+ setAid(injury:String, resourcesGiven:String[]):void" style="text;html=1;strokeColor=none;fillColor=none;align=center;verticalAlign=middle;whiteSpace=wrap;rounded=0;fontSize=24;" vertex="1" parent="1">
                    <mxGeometry x="215" y="730" width="550" height="30" as="geometry"/>
                </mxCell>
                <mxCell id="32" value="+ setShelter(centreName:String, address:String):void" style="text;html=1;strokeColor=none;fillColor=none;align=center;verticalAlign=middle;whiteSpace=wrap;rounded=0;fontSize=24;" vertex="1" parent="1">
                    <mxGeometry x="205" y="760" width="593.75" height="30" as="geometry"/>
                </mxCell>
                <mxCell id="33" value="+ getRelative():Relative" style="text;html=1;strokeColor=none;fillColor=none;align=center;verticalAlign=middle;whiteSpace=wrap;rounded=0;fontSize=24;" vertex="1" parent="1">
                    <mxGeometry x="205" y="780" width="285" height="40" as="geometry"/>
                </mxCell>
                <mxCell id="34" value="+ getShelter():Centre" style="text;html=1;strokeColor=none;fillColor=none;align=center;verticalAlign=middle;whiteSpace=wrap;rounded=0;fontSize=24;" vertex="1" parent="1">
                    <mxGeometry x="205" y="810" width="255" height="30" as="geometry"/>
                </mxCell>
                <mxCell id="36" value="+ getAid():Aid" style="text;html=1;strokeColor=none;fillColor=none;align=center;verticalAlign=middle;whiteSpace=wrap;rounded=0;fontSize=24;" vertex="1" parent="1">
                    <mxGeometry x="205" y="840" width="175" height="30" as="geometry"/>
                </mxCell>
                <mxCell id="37" value="+ getName():String" style="text;html=1;strokeColor=none;fillColor=none;align=center;verticalAlign=middle;whiteSpace=wrap;rounded=0;fontSize=24;" vertex="1" parent="1">
                    <mxGeometry x="192.5" y="870" width="255" height="30" as="geometry"/>
                </mxCell>
                <mxCell id="38" value="+ getAge():String" style="text;html=1;strokeColor=none;fillColor=none;align=center;verticalAlign=middle;whiteSpace=wrap;rounded=0;fontSize=24;" vertex="1" parent="1">
                    <mxGeometry x="182.5" y="900" width="255" height="30" as="geometry"/>
                </mxCell>
                <mxCell id="39" value="+ getLang():String" style="text;html=1;strokeColor=none;fillColor=none;align=center;verticalAlign=middle;whiteSpace=wrap;rounded=0;fontSize=24;" vertex="1" parent="1">
                    <mxGeometry x="186.25" y="930" width="255" height="30" as="geometry"/>
                </mxCell>
            </root>
        </mxGraphModel>
    </diagram>
</mxfile>